<?xml version="1.0" encoding="UTF-8" standalone="no"?>
<!-- Created with Inkscape (http://www.inkscape.org/) -->
<svg
   xmlns:dc="http://purl.org/dc/elements/1.1/"
   xmlns:cc="http://web.resource.org/cc/"
   xmlns:rdf="http://www.w3.org/1999/02/22-rdf-syntax-ns#"
   xmlns:svg="http://www.w3.org/2000/svg"
   xmlns="http://www.w3.org/2000/svg"
   xmlns:xlink="http://www.w3.org/1999/xlink"
   xmlns:sodipodi="http://inkscape.sourceforge.net/DTD/sodipodi-0.dtd"
   xmlns:inkscape="http://www.inkscape.org/namespaces/inkscape"
   sodipodi:docname="nice_kermeta.svg"
   sodipodi:docbase="/home/franck/logo"
   inkscape:version="0.41"
   sodipodi:version="0.32"
   id="svg1429"
   height="297mm"
   width="210mm">
  <defs
     id="defs3"><linearGradient
   id="linearGradient1634">
  <stop
   style="stop-color:#fffd00;stop-opacity:0.0000000;"
   offset="0.0000000"
   id="stop1635" />

  <stop
   style="stop-color:#ffffff;stop-opacity:1.0000000;"
   offset="1.0000000"
   id="stop1636" />

</linearGradient>
<linearGradient
   id="linearGradient1452">
  <stop
   style="stop-color:#fffd00;stop-opacity:1.0000000;"
   offset="0.0000000"
   id="stop1453" />

  <stop
   style="stop-color:#ffbe00;stop-opacity:1.0000000;"
   offset="1.0000000"
   id="stop1454" />

</linearGradient>
<linearGradient
   id="linearGradient4312">
  <stop
   style="stop-color:#ffffff;stop-opacity:1.0000000;"
   offset="0.0000000"
   id="stop4314" />



  <stop
   style="stop-color:#ffffff;stop-opacity:0.0000000;"
   offset="1.0000000"
   id="stop4316" />



</linearGradient>

  


  


  


  


  


<linearGradient
   y2="753.61359"
   x2="460.65048"
   y1="640.89075"
   x1="369.36765"
   gradientTransform="matrix(-0.163962,2.412132,1.883854,0.128053,-775.0617,-534.6077)"
   gradientUnits="userSpaceOnUse"
   id="linearGradient1591"
   xlink:href="#linearGradient4312"
   inkscape:collect="always" />
<linearGradient
   y2="409.63348"
   x2="112.66409"
   y1="377.46933"
   x1="77.224792"
   gradientTransform="matrix(-7.673916e-2,1.128953,0.881703,5.993271e-2,0.000000,-3.000000)"
   gradientUnits="userSpaceOnUse"
   id="linearGradient1594"
   xlink:href="#linearGradient4312"
   inkscape:collect="always" />
<linearGradient
   y2="536.89954"
   x2="415.52448"
   y1="477.75293"
   x1="373.02197"
   gradientTransform="matrix(-0.163962,2.412132,1.883854,0.128053,-781.4568,-535.0424)"
   gradientUnits="userSpaceOnUse"
   id="linearGradient1597"
   xlink:href="#linearGradient4312"
   inkscape:collect="always" />

  
  
  
<radialGradient
   r="291.42636"
   fy="811.15625"
   fx="392.87439"
   cy="802.32922"
   cx="388.46088"
   spreadMethod="pad"
   gradientUnits="userSpaceOnUse"
   id="radialGradient1610"
   xlink:href="#linearGradient1452"
   inkscape:collect="always" />
<linearGradient
   y2="323.44213"
   x2="222.60203"
   y1="709.36296"
   x1="363.94299"
   gradientTransform="scale(1.012508,0.987647)"
   gradientUnits="userSpaceOnUse"
   id="linearGradient1612"
   xlink:href="#linearGradient1634"
   inkscape:collect="always" />
<linearGradient
   gradientUnits="userSpaceOnUse"
   y2="366.56863"
   x2="363.32675"
   y1="297.17874"
   x1="257.81583"
   gradientTransform="scale(1.194277,0.837327)"
   id="linearGradient2384"
   xlink:href="#linearGradient4312"
   inkscape:collect="always" />
</defs>
  <sodipodi:namedview
     inkscape:window-y="24"
     inkscape:window-x="0"
     inkscape:window-height="969"
     inkscape:window-width="1392"
     inkscape:current-layer="layer1"
     inkscape:document-units="px"
     inkscape:cy="723.70056"
     inkscape:cx="375.00000"
     inkscape:zoom="1.0000000"
     inkscape:pageshadow="2"
     inkscape:pageopacity="0.0"
     borderopacity="1.0"
     bordercolor="#666666"
     pagecolor="#ffffff"
     id="base" />
  <metadata
     id="metadata4">
    <rdf:RDF
       id="RDF5">
      <cc:Work
         id="Work6"
         rdf:about="">
        <dc:format
           id="format7">image/svg+xml</dc:format>
        <dc:type
           rdf:resource="http://purl.org/dc/dcmitype/StillImage"
           id="type9" />
      </cc:Work>
    </rdf:RDF>
  </metadata>
  <g
     id="layer1"
     inkscape:groupmode="layer"
     inkscape:label="Layer 1">
    <g
       id="g4245"
       style="stroke:none;fill-opacity:0.99521530;fill:#ff4800"
       transform="matrix(-0.236235,3.475381,3.475381,0.236235,-2558.150,-1170.545)">
    <path
   style="fill-rule:evenodd;stroke-width:0.42001683px;stroke-linecap:butt;stroke-linejoin:miter;stroke-opacity:1.0000000"
   d="M 366.44970,906.50027 C 421.40841,878.88251 480.94098,895.78367 470.31830,943.18761 C 461.85158,980.89712 395.58967,973.38098 407.05246,938.06874 C 413.07044,959.89544 433.52356,953.88461 436.47973,936.13041 C 441.34923,906.07023 366.44970,906.50027 366.44970,906.50027 z "
   id="path2836"
   sodipodi:nodetypes="ccccc" />



    <path
   style="fill-rule:evenodd;stroke-width:0.42001683px;stroke-linecap:butt;stroke-linejoin:miter;stroke-opacity:1.0000000"
   d="M 442.07325,891.54476 C 390.67621,857.75800 375.54676,797.75070 421.91112,783.24824 C 458.80187,771.72588 485.42366,832.86845 449.11097,840.59750 C 465.00445,824.47243 449.57236,809.76492 432.71869,816.08190 C 404.25106,826.89488 442.07325,891.54476 442.07325,891.54476 z "
   id="path4237"
   sodipodi:nodetypes="ccccc" />



    <path
   style="fill-rule:evenodd;stroke-width:0.42001683px;stroke-linecap:butt;stroke-linejoin:miter;stroke-opacity:0.39234450"
   d="M 392.37813,834.27683 C 388.81646,895.68135 344.41334,938.78748 308.67166,905.88600 C 280.24763,879.69885 319.88775,826.07243 344.73765,853.65561 C 322.82619,847.95399 317.80516,868.67232 331.70266,880.10954 C 355.30079,899.35674 392.37813,834.27683 392.37813,834.27683 z "
   id="path4239"
   sodipodi:nodetypes="ccccc" />



  </g>
    <path
       style="fill:url(#linearGradient1597);fill-opacity:1.0000000;fill-rule:evenodd;stroke:none;stroke-width:1.0000000px;stroke-linecap:butt;stroke-linejoin:miter;stroke-opacity:1.0000000"
       d="M 209.98183,407.16861 C 161.67743,393.17748 112.12050,413.36585 87.057110,451.28070 C 61.993723,489.19554 52.969571,543.19141 90.791069,585.38078 C 131.75855,612.79320 256.29944,418.88315 209.98183,407.16861 z "
       id="path4310"
       sodipodi:nodetypes="cccc" />
    <path
       style="fill:url(#linearGradient1594);fill-opacity:1.0000000;fill-rule:evenodd;stroke:none;stroke-width:1.0000000px;stroke-linecap:butt;stroke-linejoin:miter;stroke-opacity:1.0000000"
       d="M 456.23725,82.413810 C 370.36636,73.619853 302.86881,126.05447 307.84667,186.14560 C 310.42106,207.28823 339.88519,143.71343 371.75768,154.51093 C 436.70181,159.99619 484.28976,131.64252 456.23725,82.413810 z "
       id="path4320"
       sodipodi:nodetypes="cccc" />
    <path
       style="fill:url(#linearGradient1591);fill-opacity:1.0000000;fill-rule:evenodd;stroke:none;stroke-width:1.0000000px;stroke-linecap:butt;stroke-linejoin:miter;stroke-opacity:1.0000000"
       d="M 598.76890,582.00796 C 527.36346,583.60654 497.83960,484.30431 478.47464,461.40024 C 451.95250,473.51745 453.53196,630.03306 539.02862,673.24574 C 619.61908,669.08684 598.35428,608.95702 598.76890,582.00796 z "
       id="path4324"
       sodipodi:nodetypes="cccc" />
    <path
       sodipodi:type="arc"
       style="fill:url(#radialGradient1610);fill-opacity:1.0000000;fill-rule:nonzero;stroke:none;stroke-width:1.0000000pt;stroke-linecap:butt;stroke-linejoin:miter;stroke-opacity:1.0000000"
       id="path1007"
       sodipodi:cx="384.04736"
       sodipodi:cy="550.75830"
       sodipodi:rx="331.01437"
       sodipodi:ry="331.01437"
       d="M 715.06174 550.75830 A 331.01437 331.01437 0 1 1  53.032990,550.75830 A 331.01437 331.01437 0 1 1  715.06174 550.75830 z"
       transform="matrix(0.113187,-8.326111e-2,8.326111e-2,0.113187,308.3171,398.1625)" />
    <path
       sodipodi:type="arc"
       style="opacity:0.82165605;fill:url(#linearGradient1612);fill-opacity:0.75000000;fill-rule:evenodd;stroke:none;stroke-width:1.0000000pt;stroke-linecap:butt;stroke-linejoin:miter;stroke-opacity:1.0000000"
       id="path1630"
       sodipodi:cx="375.65048"
       sodipodi:cy="507.44803"
       sodipodi:rx="197.98990"
       sodipodi:ry="193.12854"
       d="M 573.64038 507.44803 A 197.98990 193.12854 0 1 1  177.66058,507.44803 A 197.98990 193.12854 0 1 1  573.64038 507.44803 z"
       transform="matrix(0.146939,-0.108089,8.634598e-2,0.117381,291.0615,399.2104)" />
    <path
       sodipodi:nodetypes="cccc"
       id="path2372"
       d="M 280.00000,377.36218 C 340.00000,346.36218 425.00000,290.36218 438.00000,222.36218 C 497.00000,283.36218 506.00000,305.36218 441.00000,338.36218 C 390.00000,363.36218 250.00000,391.36218 280.00000,377.36218 z "
       style="opacity:1.0000000;fill:url(#linearGradient2384);fill-opacity:1.0;fill-rule:evenodd;stroke:none;stroke-width:1.0000000px;stroke-linecap:butt;stroke-linejoin:miter;stroke-opacity:1.0000000" />
  </g>
</svg>
